<mxfile host="Electron" modified="2024-02-01T07:56:10.847Z" agent="Mozilla/5.0 (Windows NT 10.0; Win64; x64) AppleWebKit/537.36 (KHTML, like Gecko) draw.io/22.1.21 Chrome/120.0.6099.109 Electron/28.1.0 Safari/537.36" etag="7xGBOJ42BFB7waATwoNR" version="22.1.21" type="device">
  <diagram name="Page-1" id="bf55CM-UF1sACK0ydFgU">
    <mxGraphModel dx="1434" dy="854" grid="1" gridSize="10" guides="1" tooltips="1" connect="1" arrows="1" fold="1" page="1" pageScale="1" pageWidth="850" pageHeight="1100" math="0" shadow="0">
      <root>
        <mxCell id="0" />
        <mxCell id="1" parent="0" />
        <mxCell id="A-W998lmlx4RPp3HRFfS-10" value="DemoPipeline" style="rounded=0;whiteSpace=wrap;html=1;labelPosition=center;verticalLabelPosition=middle;align=center;verticalAlign=top;fillColor=none;dashed=1;" parent="1" vertex="1">
          <mxGeometry x="60" y="170" width="730" height="200" as="geometry" />
        </mxCell>
        <mxCell id="A-W998lmlx4RPp3HRFfS-5" style="edgeStyle=orthogonalEdgeStyle;rounded=0;orthogonalLoop=1;jettySize=auto;html=1;exitX=1;exitY=0.5;exitDx=0;exitDy=0;" parent="1" source="A-W998lmlx4RPp3HRFfS-3" target="A-W998lmlx4RPp3HRFfS-4" edge="1">
          <mxGeometry relative="1" as="geometry" />
        </mxCell>
        <mxCell id="A-W998lmlx4RPp3HRFfS-1" value="DemoWriterOperator" style="rounded=0;whiteSpace=wrap;html=1;labelPosition=center;verticalLabelPosition=middle;align=center;verticalAlign=top;" parent="1" vertex="1">
          <mxGeometry x="80" y="230" width="285" height="110" as="geometry" />
        </mxCell>
        <mxCell id="A-W998lmlx4RPp3HRFfS-2" value="DemoReaderOperator" style="rounded=0;whiteSpace=wrap;html=1;labelPosition=center;verticalLabelPosition=middle;align=center;verticalAlign=top;" parent="1" vertex="1">
          <mxGeometry x="490" y="230" width="285" height="110" as="geometry" />
        </mxCell>
        <mxCell id="A-W998lmlx4RPp3HRFfS-3" value="&lt;font style=&quot;font-size: 10px;&quot;&gt;KafkaChannelOutputPort&lt;/font&gt;" style="rounded=0;whiteSpace=wrap;html=1;labelPosition=center;verticalLabelPosition=middle;align=center;verticalAlign=middle;" parent="1" vertex="1">
          <mxGeometry x="240" y="270" width="125" height="30" as="geometry" />
        </mxCell>
        <mxCell id="A-W998lmlx4RPp3HRFfS-4" value="&lt;font style=&quot;font-size: 10px;&quot;&gt;KafkaChannelInputPort&lt;/font&gt;" style="rounded=0;whiteSpace=wrap;html=1;labelPosition=center;verticalLabelPosition=middle;align=center;verticalAlign=middle;" parent="1" vertex="1">
          <mxGeometry x="490" y="270" width="125" height="30" as="geometry" />
        </mxCell>
      </root>
    </mxGraphModel>
  </diagram>
</mxfile>
